<?xml version="1.0" encoding="utf-8"?>
<!-- Generator: Adobe Illustrator 16.0.0, SVG Export Plug-In . SVG Version: 6.00 Build 0)  -->
<!DOCTYPE svg PUBLIC "-//W3C//DTD SVG 1.1//EN" "http://www.w3.org/Graphics/SVG/1.1/DTD/svg11.dtd">
<svg version="1.1" id="Layer_1" xmlns="http://www.w3.org/2000/svg" xmlns:xlink="http://www.w3.org/1999/xlink" x="0px" y="0px"
	 width="250px" height="75px" viewBox="0 0 250 75" enable-background="new 0 0 250 75" xml:space="preserve">
<g>
	<path fill="#D7C127" d="M32.292,41.34c-2.544,6.433-9.312,8.929-13.682,8.929c-7.104,0-10.513-3.168-10.513-11.809
		c0-8.688,4.177-24.962,16.754-24.962c4.512,0,8.017,1.776,8.017,6.433c0,2.544-0.912,4.416-3.36,4.416
		c-0.769,0-1.824-0.191-2.736-1.248c1.152-0.576,2.208-2.592,2.208-4.416c0-1.536-0.768-2.929-2.928-2.929
		c-5.281,0-9.985,12.625-9.985,22.418c0,4.417,1.152,7.489,5.761,7.489c3.744,0,7.152-1.824,9.36-4.801L32.292,41.34z"/>
	<path fill="#D7C127" d="M54.083,25.499L50.626,41.82c-0.144,0.624-0.192,1.104-0.192,1.536c0,1.344,0.624,2.064,1.969,2.064
		c1.872,0,3.168-2.112,3.888-4.513h2.017c-2.736,7.825-7.057,8.881-9.648,8.881c-2.688,0-4.417-1.536-4.705-4.416
		c-1.488,2.208-3.744,4.416-7.152,4.416c-3.265,0-6.385-2.017-6.385-7.729c0-6.48,3.984-16.802,12.337-16.802
		c2.736,0,3.889,1.057,3.889,2.448v0.336l0.528-2.544H54.083z M37.521,41.389c0,3.696,1.536,3.744,2.4,3.744
		c1.393,0,3.408-1.44,3.984-4.225L46.21,30.06c0-0.576-0.433-1.824-1.969-1.824C40.162,28.235,37.521,36.876,37.521,41.389z"/>
	<path fill="#D7C127" d="M80.242,29.675c-1.728,0-3.024,2.017-3.744,4.417l-3.265,15.409h-6.912l3.504-16.562
		c0.097-0.384,0.145-0.768,0.145-1.2c0-1.056-0.384-2.112-1.44-2.112c-1.872,0-3.168,2.064-3.889,4.465l-3.264,15.409h-6.913
		l5.089-24.002h6.912l-0.527,2.496c2.016-2.305,4.176-2.736,5.856-2.736c2.544,0,4.416,1.152,4.944,4.129
		c2.304-3.553,4.896-4.081,6.673-4.081c3.072,0,5.328,1.584,5.328,5.425c0,3.889-2.305,9.696-2.305,12.385
		c0,1.2,0.48,2.017,1.921,2.017c2.111,0,2.976-1.729,4.032-4.225h2.016c-2.688,7.873-6.384,8.881-8.929,8.881
		c-4.176,0-5.664-2.688-5.664-5.425c0-3.264,2.16-9.169,2.16-12.241C81.97,30.539,81.394,29.675,80.242,29.675z"/>
	<path fill="#D7C127" d="M102.945,23.723l-0.769,3.601c1.393-1.2,3.217-2.064,5.616-2.064c3.265,0,5.856,1.872,5.856,7.585
		c0,6.48-2.496,16.945-11.809,16.945c-2.4,0-3.553-0.816-4.08-1.729l-2.496,11.713l-7.249,1.729l8.017-37.779H102.945z
		 M107.073,32.699c0-3.696-1.536-3.984-2.4-3.984c-1.056,0-2.4,0.816-3.312,2.353l-2.832,13.441
		c0.192,0.527,0.721,1.104,1.824,1.104C105.393,45.612,107.073,37.212,107.073,32.699z"/>
	<path fill="#D7C127" d="M136.881,25.499l-3.457,16.321c-0.143,0.624-0.191,1.104-0.191,1.536c0,1.344,0.625,1.776,1.969,1.776
		c1.871,0,3.168-1.824,3.889-4.225h2.016c-2.736,7.825-7.057,8.881-9.648,8.881c-2.736,0-4.465-1.584-4.754-4.561
		c-2.398,3.937-5.087,4.561-7.104,4.561c-2.88,0-5.137-1.729-5.137-5.761c0-0.912,0.145-1.968,0.385-3.12l3.264-15.409h6.913
		l-3.456,16.321c-0.097,0.48-0.145,0.912-0.145,1.344c0,1.104,0.384,1.969,1.44,1.969c1.873,0,3.121-1.824,3.839-4.225l3.266-15.409
		H136.881z"/>
	<path fill="#D7C127" d="M153.104,24.011c0.576,12.434,1.057,14.306,1.057,17.474c0,6.24-5.664,8.305-9.602,8.305
		c-4.896,0-7.008-3.217-7.008-6.145c0-2.208,1.248-3.841,2.545-4.465c2.688-4.752,4.416-9.505,5.904-14.209L153.104,24.011z
		 M141.391,43.261c-0.48,0-1.057-0.145-1.295-0.624c0,2.256,0.814,3.36,2.928,3.36c2.111,0,4.176-1.104,4.176-4.465
		c0-2.496-0.432-3.984-0.912-11.377c-0.959,3.12-2.305,6.001-3.889,9.073c0.625,0.288,1.105,0.863,1.105,1.68
		C143.504,42.061,142.639,43.261,141.391,43.261z"/>
	<path fill="#D7C127" d="M172.4,18.011l-5.76,26.93c0.912,0.672,1.822,0.96,2.734,0.96c5.713,0,9.217-11.425,9.217-21.121
		c0-6.529-2.832-9.073-7.008-9.073c-7.152,0-12.576,4.368-12.576,11.665c0,2.448,0.623,2.832,0.672,3.265
		c-3.168,0-5.137-1.2-5.137-4.465c0-6.576,8.113-12.673,17.857-12.673c9.312,0,12.816,6.48,12.816,13.825
		c0,11.041-6.191,22.802-13.297,22.802c-1.824,0-3.793-0.768-5.855-2.544l-0.385,1.92h-6.912l6.527-30.53L172.4,18.011z"/>
	<path fill="#D7C127" d="M208.111,25.499l-3.455,16.321c-0.145,0.624-0.193,1.104-0.193,1.536c0,1.344,0.625,1.776,1.969,1.776
		c1.873,0,3.168-1.824,3.889-4.225h2.016c-2.736,7.825-7.057,8.881-9.648,8.881c-2.736,0-4.465-1.584-4.752-4.561
		c-2.4,3.937-5.088,4.561-7.105,4.561c-2.879,0-5.137-1.729-5.137-5.761c0-0.912,0.145-1.968,0.385-3.12l3.264-15.409h6.914
		l-3.457,16.321c-0.096,0.48-0.145,0.912-0.145,1.344c0,1.104,0.385,1.969,1.441,1.969c1.871,0,3.119-1.824,3.84-4.225l3.264-15.409
		H208.111z"/>
	<path fill="#D7C127" d="M230.672,40.908c-2.496,2.88-5.137,4.704-7.346,6.001c-2.016,2.111-5.088,2.88-7.535,2.88
		c-4.896,0-7.01-3.217-7.01-6.145c0-2.208,1.248-3.841,2.545-4.465c2.688-4.752,4.416-9.505,5.904-14.209l7.105-0.96
		c0.576,12.434,1.055,14.306,1.055,17.474c0,0.672-0.047,1.248-0.191,1.824c1.297-0.769,2.545-1.632,3.457-2.4H230.672z
		 M212.623,43.261c-0.48,0-1.057-0.145-1.297-0.624c0,2.256,0.816,3.36,2.928,3.36c2.113,0,4.176-1.104,4.176-4.465
		c0-2.496-0.432-3.984-0.912-11.377c-0.959,3.12-2.303,6.001-3.887,9.073c0.623,0.288,1.104,0.863,1.104,1.68
		C214.734,42.061,213.871,43.261,212.623,43.261z"/>
	<path fill="#D7C127" d="M235.566,41.82c-0.145,0.576-0.24,1.152-0.24,1.68c0,1.009,0.385,1.729,1.68,1.729
		c0.336,0,0.865,0,1.248-0.144c-1.344,4.128-3.455,4.704-5.088,4.704c-3.359,0-4.801-2.353-4.801-5.425
		c0-0.815,0.096-1.68,0.289-2.544l3.072-14.401h-1.584l0.383-1.92h1.584l1.441-6.625l7.104-0.96c0,0-0.719,3.265-1.631,7.585h2.879
		l-0.383,1.92h-2.881L235.566,41.82z"/>
</g>
</svg>
