<?xml version="1.0" encoding="utf-8"?>
<!-- Generator: Adobe Illustrator 16.0.0, SVG Export Plug-In . SVG Version: 6.00 Build 0)  -->
<!DOCTYPE svg PUBLIC "-//W3C//DTD SVG 1.1 Tiny//EN" "http://www.w3.org/Graphics/SVG/1.1/DTD/svg11-tiny.dtd">
<svg version="1.1" baseProfile="tiny" id="Layer_1" xmlns="http://www.w3.org/2000/svg" xmlns:xlink="http://www.w3.org/1999/xlink"
	 x="0px" y="0px" width="271px" height="59px" viewBox="0 0 271 59" overflow="auto" xml:space="preserve">
<g>
	<text transform="matrix(1 0 0 1 73.626 42.8828)" fill="#FEC111" font-family="'Noteworthy-Light'" font-size="39.8775">C</text>
	<text transform="matrix(1 0 0 1 97.4521 42.8828)" fill="#FEC111" font-family="'Noteworthy-Light'" font-size="39.8775">a</text>
	<text transform="matrix(1 0 0 1 116.4937 42.8828)" fill="#FEC111" font-family="'Noteworthy-Light'" font-size="39.8775">m</text>
	<text transform="matrix(1 0 0 1 142.6626 42.8828)" fill="#FEC111" font-family="'Noteworthy-Light'" font-size="39.8775">p</text>
	<text transform="matrix(1 0 0 1 160.1094 42.8828)" fill="#FEC111" font-family="'Noteworthy-Light'" font-size="39.8775">u</text>
	<text transform="matrix(1 0 0 1 176.209 42.8828)" fill="#FEC111" font-family="'Noteworthy-Light'" font-size="39.8775">s</text>
	<text transform="matrix(1 0 0 1 194.0049 42.8828)" fill="#FEC111" font-family="'Noteworthy-Light'" font-size="39.8775">D</text>
	<text transform="matrix(1 0 0 1 218.8779 42.8828)" fill="#FEC111" font-family="'Noteworthy-Light'" font-size="39.8775">u</text>
	<text transform="matrix(1 0 0 1 234.9785 42.8828)" fill="#FEC111" font-family="'Noteworthy-Light'" font-size="39.8775">s</text>
	<text transform="matrix(1 0 0 1 250.6309 42.8828)" fill="#FEC111" font-family="'Noteworthy-Light'" font-size="39.8775">t</text>
	<g>
		<polygon fill-rule="evenodd" fill="none" stroke="#FEC111" stroke-width="4" stroke-miterlimit="10" points="15.251,42.395 
			22.376,20.27 56.141,20.27 63.545,42.396 		"/>
		<polygon fill-rule="evenodd" fill="none" stroke="#FEC111" stroke-width="4" stroke-miterlimit="10" points="63.545,42.396 
			54.235,27.478 56.141,20.27 54.454,27.825 24.294,27.825 22.376,20.27 24.294,27.825 15.251,42.395 		"/>
		
			<rect x="36.87" y="8.931" fill-rule="evenodd" fill="none" stroke="#FEC111" stroke-width="4" stroke-miterlimit="10" width="5.058" height="11.339"/>
		<polygon fill-rule="evenodd" fill="none" stroke="#FEC111" stroke-width="4" stroke-miterlimit="10" points="40.826,9.674 
			39.399,12.145 37.971,9.674 		"/>
	</g>
</g>
</svg>
